<svg width="23" height="28" viewBox="0 0 23 28" fill="none" xmlns="http://www.w3.org/2000/svg">
<path d="M12.9588 2.11967C13.9768 0.938031 15.6981 0.058802 17.1188 0C17.3002 1.64365 16.6339 3.28731 15.647 4.47175C14.6602 5.65339 13.0439 6.57462 11.4587 6.45422C11.246 4.84696 12.0428 3.17251 12.9588 2.11967ZM21.0405 24.5232C19.8609 26.2285 18.6415 27.9253 16.7189 27.9617C14.8247 27.9981 14.2178 26.8501 12.057 26.8501C9.89339 26.8501 9.21566 27.9253 7.42916 27.9981C5.57178 28.0681 4.1596 26.1529 2.97144 24.456C0.544081 20.9811 -1.30763 14.6333 1.18211 10.3491C2.41564 8.22108 4.62749 6.87423 7.02366 6.84063C8.84985 6.80703 10.5711 8.05867 11.6856 8.05867C12.8028 8.05867 14.8956 6.55502 17.0932 6.77623C18.0148 6.81543 20.5982 7.14304 22.257 9.54832C22.1266 9.63232 19.1718 11.3348 19.2087 14.8797C19.2455 19.1134 22.9546 20.5219 23 20.5415C22.9631 20.6395 22.4017 22.552 21.0405 24.5232Z" fill="black"/>
</svg>
