<svg width="23" height="26" viewBox="0 0 23 26" fill="none" xmlns="http://www.w3.org/2000/svg">
<path d="M0.969328 1.90687C0.701117 2.18062 0.545898 2.60681 0.545898 3.15876V22.8462C0.545898 23.3982 0.701117 23.8244 0.969328 24.0981L1.03553 24.1582L12.3506 13.1305V12.8701L1.03553 1.84233L0.969328 1.90687Z" fill="black"/>
<path d="M17.4877 16.8083L13.7202 13.1306V12.8702L17.4923 9.19242L17.5767 9.24027L22.0439 11.7185C23.3187 12.4217 23.3187 13.579 22.0439 14.2868L17.5767 16.7605L17.4877 16.8083Z" fill="black"/>
<path d="M16.8921 17.4454L13.0356 13.6853L1.6543 24.7832C2.07773 25.2172 2.76823 25.2695 3.55346 24.8355L16.8921 17.4454Z" fill="black"/>
<path d="M16.8921 8.55556L3.55346 1.16553C2.76823 0.735995 2.07773 0.788294 1.6543 1.22228L13.0356 12.3157L16.8921 8.55556Z" fill="black"/>
</svg>
